<svg width="45" height="46" viewBox="0 0 45 46" fill="none" xmlns="http://www.w3.org/2000/svg">
<path fill-rule="evenodd" clip-rule="evenodd" d="M5.07129 8.89632C4.9496 9.05391 4.88352 9.24792 4.88352 9.44763C4.88352 9.64735 4.9496 9.84136 5.07129 9.99895C5.14124 10.1336 7.15076 12.6978 11.4941 12.6978C13.6562 12.6978 15.4368 11.6978 17.1538 10.7298C18.8708 9.76175 20.5051 8.85144 22.4892 8.85144C24.4481 8.85144 25.9917 9.7888 27.6463 10.7936L27.7101 10.8323L27.7181 10.8372C29.3948 11.8552 31.2367 12.9735 33.4906 12.9735C38.012 12.9735 39.9007 10.0438 39.977 9.92202C40.0762 9.76338 40.1239 9.57757 40.1137 9.39035C40.1034 9.20313 40.0357 9.02376 39.9198 8.87709C37.8177 6.26073 35.1623 4.15081 32.1477 2.70148C29.1331 1.25214 25.8354 0.5 22.4956 0.5C19.1557 0.5 15.858 1.25214 12.8434 2.70148C9.82876 4.15081 7.17341 6.26073 5.07129 8.87709V8.89632ZM1.47938 14.9927C0.287184 18.1352 -0.19409 21.5064 0.0706664 24.8602C0.335423 28.2141 1.33953 31.4661 3.00974 34.379C4.67996 37.2918 6.97414 39.7921 9.72492 41.6974C12.4757 43.6026 15.6137 44.8648 18.91 45.3919C19.1052 45.4246 19.3057 45.3899 19.4788 45.2933C19.652 45.1967 19.7877 45.0439 19.8639 44.8598C19.9148 44.7316 21.1357 41.6545 18.9736 37.8658C17.8883 35.9912 16.1443 34.9404 14.4559 33.9229L14.4559 33.9229L14.4458 33.9169C12.7543 32.8976 11.1645 31.936 10.1724 30.1987C9.18878 28.497 9.22476 26.6357 9.26283 24.6657L9.26306 24.6535C9.30122 22.679 9.33937 20.493 8.21379 18.525C5.95627 14.576 2.4905 14.4029 2.33788 14.3965C2.15057 14.3913 1.96647 14.4463 1.81216 14.5534C1.65786 14.6606 1.54132 14.8144 1.47938 14.9927ZM37.0085 18.756C39.1897 14.9673 42.4392 14.4801 42.5791 14.4801C42.7772 14.4578 42.977 14.5031 43.1465 14.6089C43.316 14.7147 43.4454 14.8747 43.5139 15.0634C44.7095 18.207 45.1937 21.5799 44.931 24.9362C44.6684 28.2924 43.6655 31.5471 41.9958 34.4627C40.326 37.3784 38.0314 39.8813 35.2795 41.7888C32.5277 43.6963 29.388 44.9602 26.0897 45.4883C25.9065 45.5186 25.7186 45.4903 25.5521 45.4076C25.3856 45.3248 25.249 45.1917 25.1612 45.0268C24.7495 44.1249 24.5451 43.141 24.5635 42.1484C24.5805 40.6249 24.9998 39.1336 25.7781 37.8276C26.8837 35.8991 28.7112 34.8696 30.3955 33.9207C30.4357 33.8981 30.4757 33.8755 30.5157 33.853C30.5676 33.8237 30.6195 33.7946 30.6712 33.7654C32.3291 32.8319 33.8652 31.9668 34.8273 30.2759C35.8193 28.5322 35.8511 26.6731 35.8765 24.6858C35.902 22.6985 35.9338 20.6471 37.0085 18.756Z" fill="#F47B20"/>
</svg>
